<?xml version="1.0" standalone="no"?>
<!DOCTYPE svg PUBLIC "-//W3C//DTD SVG 20010904//EN"
 "http://www.w3.org/TR/2001/REC-SVG-20010904/DTD/svg10.dtd">
<svg version="1.0" xmlns="http://www.w3.org/2000/svg"
 width="276.000000pt" height="276.000000pt" viewBox="0 0 276.000000 276.000000"
 preserveAspectRatio="xMidYMid meet">
<metadata>
Created by potrace 1.14, written by Peter Selinger 2001-2017
</metadata>
<g transform="translate(0.000000,276.000000) scale(0.100000,-0.100000)"
fill="#000000" stroke="none">
<path d="M1316 2453 c-11 -35 -12 -43 -2 -30 7 9 20 17 29 17 9 0 21 -8 26
-17 16 -27 13 -8 -5 37 -9 22 -20 40 -24 40 -5 0 -15 -21 -24 -47z m30 0 c-10
-10 -19 5 -10 18 6 11 8 11 12 0 2 -7 1 -15 -2 -18z"/>
<path d="M1209 2453 l0 -38 -16 33 c-22 42 -31 41 -35 -5 l-4 -38 -13 33 c-7
17 -17 32 -22 32 -5 0 0 -18 11 -40 23 -46 40 -44 41 3 l0 32 16 -32 c21 -41
33 -42 33 -4 0 16 3 36 6 45 3 9 1 16 -5 16 -6 0 -11 -17 -12 -37z"/>
<path d="M1461 2448 l2 -43 6 35 7 35 18 -37 c22 -47 36 -40 35 15 l-2 42 -6
-39 -6 -39 -17 36 c-23 49 -38 47 -37 -5z"/>
<path d="M1628 2461 c9 -5 12 -21 8 -47 l-5 -39 11 38 c7 21 18 37 27 38 12 0
11 3 -4 9 -28 12 -55 13 -37 1z"/>
<path d="M997 2433 c-4 -3 -7 -27 -6 -52 0 -39 2 -43 10 -22 7 18 15 22 34 19
20 -4 23 -2 15 11 -13 25 -46 52 -53 44z m23 -28 c10 -12 10 -15 -4 -15 -9 0
-16 7 -16 15 0 8 2 15 4 15 2 0 9 -7 16 -15z"/>
<path d="M851 2373 c-27 -18 -14 -38 24 -38 35 0 34 -19 -1 -25 -20 -4 -25 -8
-16 -14 16 -10 65 20 59 37 -2 7 -21 15 -43 18 -36 5 -35 10 6 21 8 3 10 7 4
11 -6 3 -21 -1 -33 -10z"/>
<path d="M1841 2345 c-29 -65 -26 -71 5 -12 14 27 23 51 21 54 -3 2 -15 -17
-26 -42z"/>
<path d="M2020 2260 c-18 -25 -19 -34 -10 -45 20 -24 59 -18 72 10 9 21 8 28
-7 45 -24 27 -30 25 -55 -10z m54 -6 c8 -21 -11 -44 -35 -44 -26 0 -30 13 -13
38 18 26 39 28 48 6z"/>
<path d="M632 2238 c-27 -27 -4 -54 31 -36 20 10 40 2 31 -13 -3 -6 -16 -14
-28 -19 -16 -7 -17 -9 -4 -9 21 -1 50 27 45 43 -2 6 -20 10 -41 8 -40 -3 -49
13 -13 28 13 5 16 9 7 9 -9 1 -21 -4 -28 -11z"/>
<path d="M2137 2162 l-27 -28 27 -25 c26 -22 26 -22 9 -1 -13 15 -16 26 -9 33
7 7 14 5 23 -6 7 -8 17 -15 23 -15 5 0 2 9 -8 20 -25 28 -12 37 22 15 l28 -18
-24 27 c-14 14 -27 26 -31 26 -3 0 -18 -13 -33 -28z"/>
<path d="M2251 2049 c-13 -22 -21 -43 -18 -45 6 -7 87 15 87 22 0 6 -34 0 -64
-12 -14 -5 -13 0 5 30 12 20 19 39 17 41 -2 3 -15 -13 -27 -36z"/>
<path d="M457 2062 c-22 -25 -22 -29 11 -57 34 -31 36 -31 57 3 l18 27 -22
-19 c-15 -14 -25 -16 -32 -9 -8 8 -8 13 0 17 6 4 11 13 11 19 0 7 -7 4 -15 -7
-21 -28 -38 -10 -19 20 19 28 14 32 -9 6z"/>
<path d="M747 2009 c-86 -21 -167 -86 -203 -164 -33 -70 -33 -180 0 -250 31
-67 119 -146 238 -213 122 -69 218 -141 253 -191 50 -73 47 -176 -8 -238 -43
-49 -99 -73 -172 -72 -139 0 -240 79 -329 257 -26 51 -56 70 -56 34 0 -21 38
-298 45 -329 7 -30 37 -30 50 0 14 32 59 33 159 1 75 -23 98 -26 183 -22 117
5 169 25 242 93 82 77 116 188 87 288 -33 113 -123 202 -311 309 -187 105
-255 178 -255 273 0 100 64 155 180 155 80 0 138 -25 199 -83 39 -38 111 -163
111 -193 0 -7 6 -14 13 -17 34 -13 35 7 16 183 -10 96 -19 178 -19 183 -1 19
-31 4 -45 -23 -19 -37 -43 -38 -145 -6 -89 28 -181 38 -233 25z"/>
<path d="M1717 2009 c-82 -20 -168 -83 -201 -147 -28 -54 -38 -136 -25 -202
21 -109 94 -188 254 -275 252 -137 337 -258 276 -390 -37 -83 -112 -121 -221
-113 -125 9 -211 77 -290 229 -30 59 -46 79 -58 76 -9 -2 -16 -7 -16 -13 37
-289 49 -354 65 -354 9 0 24 12 34 26 15 23 22 25 58 21 23 -3 74 -15 112 -27
103 -31 248 -25 325 14 66 33 113 76 148 136 24 40 27 55 27 140 0 85 -3 100
-27 141 -43 73 -143 157 -298 249 -156 93 -222 154 -240 221 -20 74 13 149 81
184 41 22 154 19 205 -4 84 -38 155 -122 190 -225 12 -36 21 -46 38 -46 l22 0
-17 163 c-10 89 -18 172 -18 185 -1 15 -7 22 -21 22 -11 0 -20 -6 -20 -13 0
-20 -33 -47 -56 -47 -10 0 -53 11 -94 24 -89 28 -181 38 -233 25z"/>
<path d="M366 1932 c-16 -30 -16 -31 20 -53 38 -23 39 -23 65 26 6 11 0 7 -13
-9 -28 -33 -46 -22 -28 16 10 21 10 21 -9 -2 -18 -22 -20 -23 -26 -7 -4 9 -2
24 5 32 7 9 10 18 7 21 -3 3 -13 -8 -21 -24z"/>
<path d="M2327 1927 l-27 -22 20 -30 c11 -16 20 -25 20 -20 0 6 -7 20 -15 32
-13 18 -13 22 0 27 9 3 19 -3 26 -15 6 -11 13 -18 16 -15 3 3 0 13 -7 21 -9
11 -10 19 -3 26 7 7 16 4 27 -12 18 -26 22 -18 6 12 -14 25 -29 24 -63 -4z"/>
<path d="M312 1806 c11 -8 15 -20 11 -34 -4 -18 -9 -20 -24 -11 -10 5 -19 6
-19 1 0 -5 18 -16 40 -25 22 -8 40 -11 40 -6 0 5 -7 9 -15 9 -8 0 -15 6 -15
13 0 22 16 38 33 31 34 -13 16 6 -19 21 -44 18 -55 19 -32 1z"/>
<path d="M2403 1803 c-38 -19 -39 -22 -17 -49 15 -18 15 -18 4 3 -9 20 -7 24
25 37 19 8 35 17 35 20 0 9 -12 6 -47 -11z"/>
<path d="M2430 1661 c-15 -29 3 -61 34 -61 30 0 48 22 44 52 -4 32 -62 39 -78
9z m65 -21 c0 -20 -6 -26 -26 -28 -30 -4 -46 22 -28 45 20 23 54 12 54 -17z"/>
<path d="M240 1645 c0 -8 2 -15 4 -15 2 0 6 7 10 15 3 8 1 15 -4 15 -6 0 -10
-7 -10 -15z"/>
<path d="M276 1635 c-10 -15 -22 -23 -29 -19 -7 4 -7 1 1 -7 12 -12 16 -11 29
9 9 12 19 22 24 22 13 0 11 -37 -1 -43 -6 -3 -5 -4 2 -3 16 3 17 58 2 63 -6 2
-19 -8 -28 -22z"/>
<path d="M2505 1522 c-16 -2 -34 -8 -40 -14 -7 -8 -5 -9 7 -5 12 4 18 0 20
-16 3 -25 45 -37 53 -15 11 29 -8 53 -40 50z m28 -27 c7 -16 -8 -29 -23 -20
-15 9 -12 35 4 35 8 0 16 -7 19 -15z"/>
<path d="M210 1517 c0 -4 8 -19 17 -34 17 -25 17 -26 -6 -18 -15 4 -21 3 -17
-3 7 -12 76 -21 76 -10 0 4 -7 8 -15 8 -24 0 -18 16 11 29 15 6 24 14 21 17
-3 3 -16 -2 -30 -11 -24 -15 -26 -15 -41 7 -9 12 -16 19 -16 15z"/>
<path d="M232 1353 c-47 -17 -47 -27 5 -48 45 -19 46 -19 31 5 -10 16 -10 24
0 40 7 11 11 20 10 19 -2 0 -22 -7 -46 -16z m18 -23 c0 -5 -7 -10 -15 -10 -8
0 -15 5 -15 10 0 6 7 10 15 10 8 0 15 -4 15 -10z"/>
<path d="M2471 1338 c2 -31 2 -31 6 -5 2 15 10 27 18 27 8 0 16 -12 18 -27 l4
-28 2 28 c0 16 7 27 15 27 8 0 17 -12 19 -27 4 -26 4 -26 6 5 1 32 0 32 -44
32 -44 0 -45 0 -44 -32z"/>
<path d="M245 1205 c-3 -8 -7 -22 -10 -30 -8 -26 -28 -17 -22 11 3 16 1 22 -5
16 -14 -14 -5 -46 13 -50 11 -2 20 8 28 28 12 37 35 31 28 -7 -3 -16 -1 -21 6
-14 14 14 0 61 -19 61 -8 0 -17 -7 -19 -15z"/>
<path d="M2483 1213 c24 -6 21 -27 -5 -47 -21 -15 -21 -16 -2 -7 14 7 24 7 32
-1 18 -18 42 -1 42 32 0 29 -2 30 -42 29 -24 -1 -35 -3 -25 -6z m57 -28 c0
-16 -6 -25 -15 -25 -9 0 -15 9 -15 25 0 16 6 25 15 25 9 0 15 -9 15 -25z"/>
<path d="M2389 833 c-46 -96 -139 -220 -228 -306 -222 -214 -474 -317 -776
-317 -245 0 -426 54 -630 188 -141 94 -297 266 -369 410 -15 30 -30 52 -32 49
-9 -9 87 -167 147 -241 73 -91 125 -141 224 -212 103 -73 235 -136 361 -171
92 -26 112 -28 294 -28 183 0 201 2 294 28 262 73 496 240 645 461 53 78 105
175 98 183 -3 2 -15 -18 -28 -44z"/>
</g>
</svg>
